# AST/ASF file generated using VICON BodyLanguage
# -----------------------------------------------
:version 1.10
:name VICON
:units
  mass 1.0
  length 0.45
  angle deg
:documentation
   .ast/.asf automatically generated from VICON data using
   VICON BodyBuilder and BodyLanguage model FoxedUp or BRILLIANT.MOD
:root
   order TX TY TZ RX RY RZ
   axis XYZ
   position 0 0 0  
   orientation 0 0 0 
:bonedata
  begin
     id 1 
     name lhipjoint
     direction 0.541323 -0.757556 0.364798 
     length 2.47576 
     axis 0 0 0  XYZ
  end
  begin
     id 2 
     name lfemur
     direction 0.34202 -0.939693 0  
     length 7.46493  
     axis 0 0 20  XYZ
    dof rx ry rz
    limits (-160.0 20.0)
           (-70.0 70.0)
           (-60.0 70.0)
  end
  begin
     id 3 
     name ltibia
     direction 0.34202 -0.939693 0   
     length 7.73805   
     axis 0 0 20   XYZ
    dof rx
    limits (-10.0 170.0)
  end
  begin
     id 4 
     name lfoot
     direction 0.107174 -0.294458 0.949636   
     length 2.25864   
     axis -90 7.62852e-016 20   XYZ
    dof rx rz
    limits (-45.0 90.0)
           (-70.0 20.0)
  end
  begin
     id 5 
     name ltoes
     direction 1.53606e-011 -4.21934e-011 1   
     length 1.12451   
     axis -90 7.62852e-016 20   XYZ
    dof rx
    limits (-90.0 20.0)
  end
  begin
     id 6 
     name rhipjoint
     direction -0.524745 -0.766967 0.36933   
     length 2.44538  
     axis 0 0 0  XYZ 
  end
  begin
     id 7 
     name rfemur
     direction -0.34202 -0.939693 0   
     length 7.61604   
     axis 0 0 -20   XYZ
    dof rx ry rz
    limits (-160.0 20.0)
           (-70.0 70.0)
           (-70.0 60.0)
  end
  begin
     id 8 
     name rtibia
     direction -0.34202 -0.939693 0   
     length 7.61056   
     axis 0 0 -20   XYZ
    dof rx
    limits (-10.0 170.0)
 end
 begin
     id 9 
     name rfoot
     direction -0.12616 -0.346623 0.929482   
     length 2.46372  
     axis -90 -7.62852e-016 -20   XYZ
    dof rx rz
    limits (-45.0 90.0)
           (-20.0 70.0)
  end
  begin
     id 10 
     name rtoes
     direction -1.53531e-011 -4.22004e-011 1   
     length 1.21611   
     axis -90 -7.62852e-016 -20   XYZ
    dof rx
    limits (-90.0 20.0)
  end
  begin
     id 11 
     name lowerback
     direction -0.000778023 0.997293 -0.0735223   
     length 2.06139   
     axis 0 0 0   XYZ
    dof rx ry rz
    limits (-20.0 45.0)
           (-30.0 30.0)
           (-30.0 30.0)
  end
  begin
     id 12 
     name upperback
     direction 0.0222598 0.999722 -0.0078355   
     length 2.06383   
     axis 0 0 0   XYZ
    dof rx ry rz
    limits (-20.0 45.0)
           (-30.0 30.0)
           (-30.0 30.0)
  end
  begin
     id 13 
     name thorax
     direction 0.0219654 0.999405 0.0265994   
     length 2.07163   
     axis 0 0 0   XYZ
    dof rx ry rz
    limits (-20.0 45.0)
           (-30.0 30.0)
           (-30.0 30.0)
  end
  begin
     id 14 
     name lowerneck
     direction 0.0213282 0.988147 0.15202   
     length 1.75969   
     axis 0 0 0   XYZ
    dof rx ry rz
    limits (-20.0 45.0)
           (-30.0 30.0)
           (-30.0 30.0)
  end
  begin
     id 15 
     name upperneck
     direction -0.0546456 0.982624 -0.177379   
     length 1.79244   
     axis 0 0 0   XYZ
    dof rx ry rz
    limits (-20.0 45.0)
           (-30.0 30.0)
           (-30.0 30.0)
  end
  begin
     id 16
     name head
     direction -0.0199987 0.996855 -0.076686  
     length 1.80555  
     axis 0 0 0   XYZ
    dof rx ry rz
    limits (-20.0 45.0)
           (-30.0 30.0)
           (-30.0 30.0)
  end
  begin
     id 17 
     name lclavicle
     direction 0.929565 0.363219 -0.063096  
     length 3.55722  
     axis 0 0 0   XYZ
    dof ry rz
    limits (-20.0 10.0)
           (0.0 20.0)
  end
  begin
     id 18 
     name lhumerus
     direction 1 -4.48993e-011 -2.36203e-027   
     length 4.92785   
     axis 180 -30 -90   XYZ
    dof rx ry rz
    limits (-60.0 90.0)
           (-90.0 90.0)
           (-90.0 90.0)
  end
  begin
     id 19
     name lradius
     direction 1 -4.48947e-011 2.02997e-027   
     length 3.44052   
     axis 180 -30 -90   XYZ
    dof rx
    limits (-10.0 170.0)
  end
  begin
     id 20
     name lwrist
     direction 1 -4.48962e-011 1.45991e-027   
     length 1.72026   
     axis 1.49639e-024 90 90   XYZ
    dof ry
    limits (-180.0 0.0)
 end
  begin
     id 21 
     name lhand
     direction 1 -4.48984e-011 2.91906e-027   
     length 0.654326   
     axis -1.863e-015 90 90   XYZ
    dof rx rz
    limits (-90.0 90.0)
           (-45.0 45.0)
  end
  begin
     id 22 
     name lfingers
     direction 1 -4.48961e-011 5.83968e-027   
     length 0.527534   
     axis -3.72598e-015 90 90   XYZ
    dof rx
    limits (0.0 90.0)
  end
  begin
     id 23
     name lthumb
     direction 0.707107 -6.34963e-011 0.707107   
     length 0.757437   
     axis -90 45 -6.68868e-015   XYZ
    dof rx rz
    limits (-45.0 45.0)
           (-45.0 45.0)
  end
  begin
     id 24 
     name rclavicle
     direction -0.902944 0.422599 -0.0781198   
     length 3.54432  
     axis 0 0 0   XYZ 
    dof ry rz
    limits (-10.0 20.0)
           (-20.0 0.0)
  end
  begin
     id 25 
     name rhumerus
     direction -1 -4.48953e-011 -4.75835e-028  
     length 5.09181   
     axis 180 30 90   XYZ
    dof rx ry rz
    limits (-90.0 60.0)
           (-90.0 90.0)
           (-90.0 90.0)
  end
  begin
     id 26 
     name rradius
     direction -1 -4.48986e-011 -3.25889e-027   
     length 3.49865   
     axis 180 30 90   XYZ
    dof rx
    limits (-10.0 170.0)
  end
  begin
     id 27 
     name rwrist
     direction -1 -4.48963e-011 1.45989e-027   
     length 1.74933   
     axis 1.49639e-024 -90 -90   XYZ
    dof ry
    limits (-180.0 0.0)
  end
  begin
     id 28
     name rhand
     direction -1 -4.49003e-011 2.91844e-027   
     length 0.66641   
     axis -1.863e-015 -90 -90   XYZ
    dof rx rz
    limits (-90.0 90.0)
           (-45.0 45.0)
  end
  begin
     id 29
     name rfingers
     direction -1 -4.48973e-011 5.83886e-027   
     length 0.537277   
     axis -3.72598e-015 -90 -90   XYZ
    dof rx
    limits (0.0 90.0)
  end
  begin
     id 30
     name rthumb
     direction -0.707107 -6.34976e-011 0.707107   
     length 0.771425   
     axis -90 -45 6.68868e-015   XYZ
    dof rx rz
    limits (-45.0 45.0)
           (-45.0 45.0)
  end
:hierarchy
  begin
    root lhipjoint rhipjoint lowerback
    lhipjoint lfemur
    lfemur ltibia
    ltibia lfoot
    lfoot ltoes
    rhipjoint rfemur
    rfemur rtibia
    rtibia rfoot
    rfoot rtoes
    lowerback upperback
    upperback thorax
    thorax lowerneck lclavicle rclavicle
    lowerneck upperneck
    upperneck head
    lclavicle lhumerus
    lhumerus lradius
    lradius lwrist
    lwrist lhand lthumb
    lhand lfingers
    rclavicle rhumerus
    rhumerus rradius
    rradius rwrist
    rwrist rhand rthumb
    rhand rfingers
  end

#!OML:ASF H:\LiuWeirdWalks\Patient Classification 1\Patient 1\Session 1\male.ASF
:FULLY-SPECIFIED
:DEGREES
40
root 1.64183 17.8247 -28.3781 -1.55587 5.23529 -0.907135
lowerback 8.85759 -5.18387 -9.01393
upperback 0.700499 -7.6004 6.06753
thorax -2.18357 -3.75643 12.3405
lowerneck -24.8733 6.69746 6.18279
upperneck 29.6765 11.2589 -11.1743
head 15.783 3.83657 -3.42054
rclavicle 3.30976e-014 -6.36111e-015
rhumerus -36.328 13.1813 -71.4706
rradius 40.2678
rwrist -9.10398
rhand -9.60751 3.29287
rfingers 7.12502
rthumb 16.3616 -26.037
lclavicle 3.30976e-014 -6.36111e-015
lhumerus -36.7738 25.4832 79.51
lradius 27.7676
lwrist 1.10505
lhand -14.3425 -0.559491
lfingers 7.12502
lthumb 11.7988 29.0882
rfemur -24.8606 -10.9964 9.2927
rtibia 75.1734
rfoot 7.70575 -5.45687
rtoes -3.07896
lfemur -3.82831 4.85035 -25.4443
ltibia 24.1041
lfoot -14.4067 5.1662
ltoes -5.44083
41
root 1.63868 17.8271 -28.376 -1.54213 5.33849 -0.922034
lowerback 8.8994 -5.09046 -9.18178
upperback 0.695722 -7.49668 5.99675
thorax -2.22859 -3.69857 12.3612
lowerneck -24.9945 6.26965 5.72192
upperneck 29.7441 10.6462 -10.7182
head 15.6933 3.58526 -3.28125
rclavicle -5.73494e-014 1.35174e-014
rhumerus -36.4816 12.7661 -71.5165
rradius 40.2587
rwrist -9.0124
rhand -9.5962 3.33412
rfingers 7.12502
rthumb 16.3725 -25.9948
lclavicle -5.73494e-014 1.35174e-014
lhumerus -36.6362 25.1249 79.544
lradius 27.7218
lwrist 1.15173
lhand -14.3721 -0.527703
lfingers 7.12502
lthumb 11.7703 29.1216
rfemur -24.8778 -11.0772 9.24846
rtibia 75.1608
rfoot 7.69496 -5.49734
rtoes -2.95283
lfemur -3.80298 4.88041 -25.3846
ltibia 24.0456
lfoot -14.4176 4.95784
ltoes -5.39961
42
root 1.63528 17.8302 -28.3739 -1.5284 5.44077 -0.941099
lowerback 8.96157 -4.92416 -9.38128
upperback 0.678786 -7.30087 5.89165
thorax -2.32462 -3.58903 12.3617
lowerneck -25.0119 5.65376 5.10886
upperneck 29.7745 9.75555 -10.0928
head 15.5172 3.22914 -3.10247
rclavicle -3.60794e-014 2.38542e-015
rhumerus -36.738 12.115 -71.5703
rradius 40.2418
rwrist -8.88595
rhand -9.5973 3.38012
rfingers 7.12502
rthumb 16.3714 -25.9489
lclavicle -3.60794e-014 2.38542e-015
lhumerus -36.4599 24.5066 79.6202
lradius 27.6744
lwrist 1.25413
lhand -14.3987 -0.477422
lfingers 7.12502
lthumb 11.7447 29.1733
rfemur -24.8951 -11.1486 9.20976
rtibia 75.1533
rfoot 7.66797 -5.53868
rtoes -2.92032
lfemur -3.77614 4.91834 -25.3189
ltibia 23.9938
lfoot -14.4365 4.74105
ltoes -5.31183
43
root 1.63155 17.8338 -28.3719 -1.51471 5.53029 -0.98916
lowerback 9.02894 -4.76242 -9.53491
upperback 0.651531 -7.10728 5.79206
thorax -2.43952 -3.47898 12.3424
lowerneck -24.9793 5.0825 4.58317
upperneck 29.7826 8.91709 -9.52076
head 15.3506 2.89922 -2.948
rclavicle 1.09332e-014 1.59028e-015
rhumerus -37.0102 11.5026 -71.6378
rradius 40.2284
rwrist -8.78409
rhand -9.60281 3.40983
rfingers 7.12502
rthumb 16.3661 -25.9197
lclavicle 1.09332e-014 1.59028e-015
lhumerus -36.3166 23.8875 79.6872
lradius 27.64
lwrist 1.3661
lhand -14.4428 -0.434415
lfingers 7.12502
lthumb 11.7021 29.2187
rfemur -24.9191 -11.1939 9.21078
rtibia 75.1486
rfoot 7.63929 -5.59691
rtoes -2.97199
lfemur -3.75747 4.96905 -25.2193
ltibia 23.9517
lfoot -14.4568 4.52261
ltoes -5.20968
44
root 1.6282 17.8374 -28.3696 -1.49881 5.61884 -1.01823
lowerback 9.08896 -4.63954 -9.67406
upperback 0.619611 -6.96404 5.7048
thorax -2.54174 -3.39532 12.3295
lowerneck -24.9223 4.63831 4.18953
upperneck 29.7617 8.25916 -9.07666
head 15.2115 2.643 -2.83012
rclavicle 5.397e-014 -8.74653e-015
rhumerus -37.2547 11.0562 -71.7121
rradius 40.2287
rwrist -8.73671
rhand -9.61043 3.40553
rfingers 7.12502
rthumb 16.3588 -25.9246
lclavicle 5.397e-014 -8.74653e-015
lhumerus -36.218 23.3894 79.7386
lradius 27.6169
lwrist 1.45756
lhand -14.5079 -0.409669
lfingers 7.12502
lthumb 11.6393 29.2471
rfemur -24.944 -11.2398 9.18429
rtibia 75.151
rfoot 7.5986 -5.63939
rtoes -3.01413
lfemur -3.73818 5.02357 -25.1445
ltibia 23.9114
lfoot -14.4715 4.31018
ltoes -5.12316
45
root 1.62504 17.8411 -28.367 -1.4827 5.7004 -1.05428
lowerback 9.1432 -4.62292 -9.78257
upperback 0.556969 -6.95904 5.68357
thorax -2.63022 -3.38191 12.3809
lowerneck -24.8232 4.5203 4.14874
upperneck 29.7377 8.0653 -8.98155
head 15.1517 2.57393 -2.82331
rclavicle -7.81224e-014 1.82882e-014
rhumerus -37.4414 11.0337 -71.7957
rradius 40.2434
rwrist -8.76549
rhand -9.62391 3.37787
rfingers 7.12502
rthumb 16.3458 -25.9533
lclavicle -7.81224e-014 1.82882e-014
lhumerus -36.2972 23.2484 79.719
lradius 27.6342
lwrist 1.50126
lhand -14.5612 -0.422998
lfingers 7.12502
lthumb 11.5879 29.2366
rfemur -24.9735 -11.2723 9.16667
rtibia 75.1571
rfoot 7.5693 -5.68969
rtoes -2.96997
lfemur -3.7172 5.08447 -25.0639
ltibia 23.8685
lfoot -14.4784 4.10747
ltoes -5.06631
46
root 1.62233 17.8445 -28.364 -1.46719 5.78014 -1.07095
lowerback 9.18133 -4.59196 -9.89292
upperback 0.50969 -6.93417 5.64361
thorax -2.70119 -3.36022 12.4081
lowerneck -24.728 4.37614 4.06617
upperneck 29.7192 7.83203 -8.83399
head 15.0867 2.49055 -2.79522
rclavicle 7.30534e-015 -1.90833e-014
rhumerus -37.6275 10.9633 -71.883
rradius 40.2633
rwrist -8.80182
rhand -9.6389 3.34653
rfingers 7.12502
rthumb 16.3314 -25.9858
lclavicle 7.30534e-015 -1.90833e-014
lhumerus -36.34 23.076 79.7098
lradius 27.6516
lwrist 1.52226
lhand -14.6023 -0.396361
lfingers 7.12502
lthumb 11.5483 29.2655
rfemur -25.0032 -11.3069 9.12173
rtibia 75.1702
rfoot 7.54475 -5.72336
rtoes -2.85383
lfemur -3.68885 5.13833 -25.0095
ltibia 23.8145
lfoot -14.4761 3.91791
ltoes -5.05516
47
root 1.61954 17.8476 -28.3611 -1.45197 5.86036 -1.08584
lowerback 9.2085 -4.6172 -9.975
upperback 0.468502 -6.98023 5.63086
thorax -2.73937 -3.37765 12.4508
lowerneck -24.6774 4.39819 4.1325
upperneck 29.7364 7.84171 -8.84055
head 15.0876 2.50254 -2.80832
rclavicle -6.7388e-014 -2.38542e-015
rhumerus -37.7268 11.0695 -71.9669
rradius 40.2591
rwrist -8.83555
rhand -9.65124 3.32677
rfingers 7.12502
rthumb 16.3195 -26.0066
lclavicle -6.7388e-014 -2.38542e-015
lhumerus -36.4238 23.0962 79.6749
lradius 27.6855
lwrist 1.51462
lhand -14.6388 -0.350269
lfingers 7.12502
lthumb 11.5131 29.3135
rfemur -25.0357 -11.3372 9.07703
rtibia 75.1857
rfoot 7.53933 -5.76509
rtoes -2.70737
lfemur -3.66477 5.18654 -24.9579
ltibia 23.7556
lfoot -14.4606 3.73575
ltoes -5.06868
48
root 1.61645 17.8507 -28.3583 -1.4351 5.94953 -1.10367
lowerback 9.22296 -4.68368 -10.0245
upperback 0.438424 -7.07643 5.63914
thorax -2.74535 -3.42395 12.498
lowerneck -24.681 4.54342 4.29931
upperneck 29.7791 8.03238 -8.95327
head 15.1408 2.58512 -2.84653
rclavicle 3.27498e-014 -3.97569e-014
rhumerus -37.7381 11.2786 -72.0361
rradius 40.2177
rwrist -8.84863
rhand -9.65873 3.32197
rfingers 7.12502
rthumb 16.3123 -26.0119
lclavicle 3.27498e-014 -3.97569e-014
lhumerus -36.5211 23.2455 79.6401
lradius 27.7421
lwrist 1.49889
lhand -14.6671 -0.273429
lfingers 7.12502
lthumb 11.4858 29.3919
rfemur -25.0692 -11.3727 9.03891
rtibia 75.2031
rfoot 7.53186 -5.79036
rtoes -2.63238
lfemur -3.6495 5.2211 -24.9044
ltibia 23.6965
lfoot -14.4362 3.56036
ltoes -5.11447
49
root 1.61287 17.8541 -28.3558 -1.41931 6.04248 -1.14092
lowerback 9.22675 -4.72598 -10.048
upperback 0.433845 -7.13631 5.63681
thorax -2.7328 -3.45475 12.5127
lowerneck -24.7106 4.62934 4.3837
upperneck 29.8152 8.13907 -8.98431
head 15.1801 2.63382 -2.85289
rclavicle -6.43565e-014 -3.4191e-014
rhumerus -37.7124 11.3576 -72.0913
rradius 40.1425
rwrist -8.81592
rhand -9.67146 3.32157
rfingers 7.12502
rthumb 16.3 -26.0133
lclavicle -6.43565e-014 -3.4191e-014
lhumerus -36.539 23.3182 79.6387
lradius 27.7864
lwrist 1.47201
lhand -14.6894 -0.216148
lfingers 7.12502
lthumb 11.4643 29.4504
rfemur -25.1023 -11.4043 9.02967
rtibia 75.2171
rfoot 7.5372 -5.81299
rtoes -2.67413
lfemur -3.6424 5.25334 -24.8285
ltibia 23.6508
lfoot -14.4188 3.3859
ltoes -5.16817
50
root 1.60881 17.8575 -28.3537 -1.40102 6.13502 -1.19683
lowerback 9.23441 -4.72175 -10.0648
upperback 0.440923 -7.13349 5.61717
thorax -2.73088 -3.45351 12.5006
lowerneck -24.7281 4.59821 4.3345
upperneck 29.8394 8.07828 -8.88076
head 15.1798 2.6164 -2.81378
rclavicle 3.36443e-014 1.03368e-014
rhumerus -37.6999 11.2515 -72.1321
rradius 40.0471
rwrist -8.73341
rhand -9.68366 3.34191
rfingers 7.12502
rthumb 16.2883 -25.994
lclavicle 3.36443e-014 1.03368e-014
lhumerus -36.4793 23.2366 79.68
lradius 27.817
lwrist 1.46191
lhand -14.6917 -0.167135
lfingers 7.12502
lthumb 11.4621 29.4995
rfemur -25.1424 -11.4301 9.04883
rtibia 75.2303
rfoot 7.54606 -5.83046
rtoes -2.87315
lfemur -3.65249 5.27788 -24.7334
ltibia 23.6253
lfoot -14.4072 3.22496
ltoes -5.20955
51
root 1.6041 17.8612 -28.3522 -1.37793 6.22112 -1.29222
lowerback 9.25767 -4.67143 -10.0693
upperback 0.45325 -7.06888 5.58752
thorax -2.75241 -3.41948 12.4687
lowerneck -24.7216 4.46017 4.18194
upperneck 29.817 7.8496 -8.64435
head 15.1237 2.53726 -2.7342
rclavicle 2.25621e-014 -9.54166e-015
rhumerus -37.7154 10.9866 -72.1762
rradius 39.9558
rwrist -8.63135
rhand -9.69768 3.36287
rfingers 7.12502
rthumb 16.2748 -25.9741
lclavicle 2.25621e-014 -9.54166e-015
lhumerus -36.3485 23.0052 79.7511
lradius 27.818
lwrist 1.44441
lhand -14.7212 -0.156687
lfingers 7.12502
lthumb 11.4337 29.5115
rfemur -25.1981 -11.439 9.126
rtibia 75.2409
rfoot 7.55992 -5.8584
rtoes -3.13857
lfemur -3.69018 5.29707 -24.5953
ltibia 23.6243
lfoot -14.3979 3.08028
ltoes -5.23879
52
root 1.59925 17.8648 -28.351 -1.35351 6.30466 -1.39203
lowerback 9.28965 -4.58078 -10.0809
upperback 0.481394 -6.95185 5.53809
thorax -2.77839 -3.35916 12.4159
lowerneck -24.7241 4.21683 3.90947
upperneck 29.8001 7.473 -8.28851
head 15.0479 2.39855 -2.61439
rclavicle 1.16786e-013 -4.37326e-014
rhumerus -37.7602 10.6136 -72.231
rradius 39.9074
rwrist -8.55762
rhand -9.71425 3.36252
rfingers 7.12502
rthumb 16.2588 -25.9758
lclavicle 1.16786e-013 -4.37326e-014
lhumerus -36.1337 22.652 79.8538
lradius 27.801
lwrist 1.43078
lhand -14.749 -0.155662
lfingers 7.12502
lthumb 11.4068 29.5141
rfemur -25.2573 -11.4411 9.21155
rtibia 75.2531
rfoot 7.56839 -5.88321
rtoes -3.2565
lfemur -3.7411 5.3084 -24.456
ltibia 23.6413
lfoot -14.393 2.95617
ltoes -5.27506
53
root 1.59447 17.8683 -28.3497 -1.32882 6.38347 -1.49331
lowerback 9.32624 -4.51766 -10.1086
upperback 0.494187 -6.87373 5.50913
thorax -2.80767 -3.31753 12.3992
lowerneck -24.672 4.06929 3.76899
upperneck 29.7755 7.22449 -8.04587
head 14.9831 2.31456 -2.53873
rclavicle -1.56046e-014 2.70347e-014
rhumerus -37.8172 10.3797 -72.3052
rradius 39.8964
rwrist -8.52835
rhand -9.72163 3.37456
rfingers 7.12502
rthumb 16.2517 -25.9643
lclavicle -1.56046e-014 2.70347e-014
lhumerus -35.9778 22.3827 79.932
lradius 27.796
lwrist 1.4244
lhand -14.7895 -0.164906
lfingers 7.12502
lthumb 11.3677 29.507
rfemur -25.3156 -11.4342 9.30034
rtibia 75.2658
rfoot 7.57331 -5.91335
rtoes -3.18286
lfemur -3.79584 5.31031 -24.3196
ltibia 23.6657
lfoot -14.3838 2.85637
ltoes -5.31452
